<svg width="1280" height="720" viewBox="0 0 1280 720" xmlns="http://www.w3.org/2000/svg"><g fill="none" fill-rule="evenodd"><path fill="#FAFAFA" d="M0 0h1280v720H0z"/><path d="M739.433 442.946v8.248c0 6.873-2.406 12.715-7.217 17.527-4.811 4.81-10.653 7.216-17.526 7.216H516.743c-6.873 0-12.715-2.405-17.526-7.216-4.811-4.812-7.217-10.654-7.217-17.527V319.23c0-6.873 2.406-12.715 7.217-17.527 4.811-4.81 10.653-7.216 17.526-7.216h8.248v24.743h-5.155c-.687 0-1.374.344-2.062 1.03-.687.688-1.03 1.376-1.03 2.063V448.1c0 .688.343 1.375 1.03 2.062.688.688 1.375 1.031 2.062 1.031h191.76c.688 0 1.375-.343 2.063-1.03.687-.688 1.03-1.375 1.03-2.063v-5.155h24.744zm21.65-173.203h-191.76c-.687 0-1.375.344-2.062 1.031-.687.688-1.031 1.375-1.031 2.062v125.779c0 .687.344 1.374 1.03 2.062.688.687 1.376 1.03 2.063 1.03h191.76c.688 0 1.375-.343 2.062-1.03.688-.688 1.031-1.375 1.031-2.062V272.836c0-.687-.343-1.374-1.03-2.062-.688-.687-1.375-1.03-2.063-1.03zM764.176 245c6.874 0 12.716 2.406 17.527 7.217 4.811 4.811 7.217 10.653 7.217 17.526v131.965c0 6.873-2.406 12.715-7.217 17.526s-10.653 7.217-17.527 7.217H566.23c-6.873 0-12.715-2.406-17.527-7.217-4.81-4.811-7.216-10.653-7.216-17.526V269.743c0-6.873 2.405-12.715 7.216-17.526 4.812-4.811 10.654-7.217 17.527-7.217h197.946zm-136.088 57.734c0 5.843-1.976 10.74-5.928 14.692s-8.85 5.928-14.691 5.928c-5.842 0-10.74-1.976-14.692-5.928s-5.928-8.85-5.928-14.692c0-5.842 1.976-10.739 5.928-14.691s8.85-5.928 14.692-5.928c5.842 0 10.739 1.976 14.691 5.928s5.928 8.85 5.928 14.691zm-37.115 49.487l20.62-20.62c1.03-1.03 2.405-1.546 4.124-1.546 1.718 0 3.092.516 4.123 1.547l20.62 20.619 53.61-53.61c1.031-1.031 2.406-1.547 4.124-1.547 1.718 0 3.093.516 4.124 1.546l37.115 37.115v41.24h-148.46V352.22z" fill="#000" opacity=".15"/></g></svg>