<svg width="67" height="67" viewBox="0 0 67 67" xmlns="http://www.w3.org/2000/svg" xmlns:xlink="http://www.w3.org/1999/xlink"><defs><rect id="b" x="160" y="705" width="630" height="730" rx="4"/><filter x="-9.7%" y="-8.1%" width="119.4%" height="116.7%" filterUnits="objectBoundingBox" id="a"><feOffset dy="2" in="SourceAlpha" result="shadowOffsetOuter1"/><feGaussianBlur stdDeviation="20" in="shadowOffsetOuter1" result="shadowBlurOuter1"/><feColorMatrix values="0 0 0 0 0.0506221222 0 0 0 0 0.215469523 0 0 0 0 0.272616621 0 0 0 0.2 0" in="shadowBlurOuter1" result="shadowMatrixOuter1"/><feOffset dy="2" in="SourceAlpha" result="shadowOffsetOuter2"/><feGaussianBlur stdDeviation="2" in="shadowOffsetOuter2" result="shadowBlurOuter2"/><feColorMatrix values="0 0 0 0 0.0509803922 0 0 0 0 0.215686275 0 0 0 0 0.274509804 0 0 0 0.05 0" in="shadowBlurOuter2" result="shadowMatrixOuter2"/><feMerge><feMergeNode in="shadowMatrixOuter1"/><feMergeNode in="shadowMatrixOuter2"/></feMerge></filter></defs><g fill="none" fill-rule="evenodd"><path fill="#24A7CA" opacity=".1" d="M-196-740h1600V35H-196z"/><g transform="translate(-196 -740)"><use fill="#000" filter="url(#a)" xlink:href="#b"/><use fill="#FFF" xlink:href="#b"/></g><path d="M33.496 0l.152.084.547.314a18.762 18.762 0 012.94 2.089 23.239 23.239 0 013.092 3.26c.69.883 1.326 1.815 1.904 2.791 2.215 3.737 3.559 8.066 3.559 12.157v10.76l.977.627c.452.3.892.614 1.29.958a12.876 12.876 0 014.648 9.55v13.305l-2.77-1.966-4.145-2.946-.009-.004V63.12a30.745 30.745 0 009.165-6.038c5.786-5.512 9.389-13.233 9.389-21.772 0-13.225-8.64-24.502-20.651-28.623a28.34 28.34 0 00-2.68-3.583C55.827 6.435 67 19.613 67 35.311c0 13.972-8.851 25.947-21.319 30.761-.9.349-1.824.658-2.765.928V32.983l-8.036-5.65V61.2h-2.76V27.333l-8.045 5.65v34.012a33.532 33.532 0 01-2.564-.847l-.2-.08a33.604 33.604 0 01-9.152-5.327C4.737 54.68 0 45.528 0 35.31 0 19.613 11.173 6.436 26.096 3.105a28.276 28.276 0 00-2.68 3.583c-12.01 4.121-20.65 15.398-20.65 28.623 0 8.539 3.602 16.26 9.388 21.772.712.68 1.456 1.33 2.236 1.935a30.71 30.71 0 006.92 4.095v-12.13l-4.145 2.946-2.765 1.957-.005.01V42.59a12.897 12.897 0 014.639-9.55c.407-.344.847-.658 1.3-.958l.967-.627.01-.009V20.695c0-4.091 1.343-8.42 3.558-12.157a26.373 26.373 0 011.904-2.791 23.204 23.204 0 013.093-3.26 18.726 18.726 0 012.94-2.09l.542-.309.148-.088zM21.057 34.915a9.334 9.334 0 00-1.021.972c-1.79 1.925-2.807 4.553-2.807 7.347v7.59h.004v.134l3.824-2.987zm24.886 0v13.056l3.824 2.987v-.01h.004v-7.714c0-2.794-1.017-5.422-2.807-7.347a9.334 9.334 0 00-1.021-.972zM35.414 3.775v19.804l7.657 5.675v-8.871c0-4.476-1.793-9.395-4.535-13.177a20.477 20.477 0 00-2.127-2.507 17.539 17.539 0 00-.995-.924zm-3.828 0c-.341.293-.674.6-.998.929a20.892 20.892 0 00-2.129 2.506c-2.739 3.781-4.53 8.7-4.53 13.175v8.869l7.657-5.674z" fill="#24A7CA"/></g></svg>