<svg width="50" height="80" viewBox="0 0 50 80" xmlns="http://www.w3.org/2000/svg" xmlns:xlink="http://www.w3.org/1999/xlink"><defs><rect id="b" x="810" y="825" width="630" height="130" rx="4"/><filter x="-9.7%" y="-45.4%" width="119.4%" height="193.8%" filterUnits="objectBoundingBox" id="a"><feOffset dy="2" in="SourceAlpha" result="shadowOffsetOuter1"/><feGaussianBlur stdDeviation="20" in="shadowOffsetOuter1" result="shadowBlurOuter1"/><feColorMatrix values="0 0 0 0 0.0506221222 0 0 0 0 0.215469523 0 0 0 0 0.272616621 0 0 0 0.2 0" in="shadowBlurOuter1" result="shadowMatrixOuter1"/><feOffset dy="2" in="SourceAlpha" result="shadowOffsetOuter2"/><feGaussianBlur stdDeviation="2" in="shadowOffsetOuter2" result="shadowBlurOuter2"/><feColorMatrix values="0 0 0 0 0.0509803922 0 0 0 0 0.215686275 0 0 0 0 0.274509804 0 0 0 0.05 0" in="shadowBlurOuter2" result="shadowMatrixOuter2"/><feMerge><feMergeNode in="shadowMatrixOuter1"/><feMergeNode in="shadowMatrixOuter2"/></feMerge></filter></defs><g fill="none" fill-rule="evenodd"><path fill="#24A7CA" opacity=".1" d="M-853-846H747V44H-853z"/><g transform="translate(-853 -846)"><use fill="#000" filter="url(#a)" xlink:href="#b"/><use fill="#FFF" xlink:href="#b"/></g><path fill="#FFF" d="M.553 53.228l.266-.064 18.368 10.543 3.006 1.736L48.45 50.288l.25-.086.266.064-26.774-15.464z"/><path d="M22.193 65.443v13.599L48.5 63.85c.452-.237.703-.703.703-1.22V50.718a.484.484 0 00-.244-.459.48.48 0 00-.516.022L22.185 65.443h.008z" fill="#F1EBEB"/><path d="M22.193 65.443v13.599L1.02 66.82c-.452-.237-.703-.703-.703-1.22V53.688a.484.484 0 01.244-.459.48.48 0 01.516.022l21.116 12.193z" fill="#FBFAFA"/><path d="M49.118 50a.305.305 0 01-.309.524L22.221 35.175.747 53.458a.306.306 0 01-.394-.466L21.97 34.58a.314.314 0 01.366-.05l26.775 15.456.007.015z" fill="#E7DCDC" fill-rule="nonzero"/><path fill="#FFF" d="M.553 34.465l.266-.064 18.368 10.543 3.006 1.736L48.45 31.518l.25-.08.266.065L22.193 16.04z"/><path d="M22.193 46.68v13.599L48.5 45.088c.452-.237.703-.703.703-1.22V31.955a.484.484 0 00-.244-.459.48.48 0 00-.516.022L22.185 46.68h.008z" fill="#F1EBEB"/><path d="M22.193 46.68v13.599L1.02 48.057c-.452-.237-.703-.703-.703-1.22V34.925a.484.484 0 01.244-.459.48.48 0 01.516.022L22.193 46.68z" fill="#FBFAFA"/><path fill="#DDCECD" d="M48.45 26.368v5.15L22.194 46.68v-5.1z"/><path d="M48.752 26.368v5.157c0 .122-.072.23-.18.28L22.344 46.952a.3.3 0 01-.416-.115.301.301 0 01-.043-.15v-5.1c0-.122.072-.223.172-.273L48.293 26.11a.305.305 0 01.459.258zm-.61 4.977v-4.447L22.494 41.76v4.39l25.648-14.805z" fill="#DDCECD" fill-rule="nonzero"/><path fill="#DDCECD" d="M1.07 29.33v5.157L22.193 46.68v-5.1z"/><path d="M1.378 29.86v4.448l20.506 11.841v-4.39L1.378 29.862zm-.61 4.627V29.33c0-.05.015-.108.044-.15a.305.305 0 01.416-.108l21.1 12.236c.101.05.173.158.173.272v5.1a.305.305 0 01-.459.258L.94 34.76a.313.313 0 01-.172-.272z" fill="#DDCECD" fill-rule="nonzero"/><path fill="#FFF" d="M.553 15.767l.266-.065 18.368 10.544 3.006 1.736L48.45 12.826l.25-.086.266.065L27.328.31z"/><path d="M22.193 27.982V41.58L48.5 26.39c.452-.237.703-.704.703-1.22V13.257a.484.484 0 00-.244-.46.48.48 0 00-.516.022L22.185 27.982h.008z" fill="#F1EBEB"/><path d="M22.193 27.982V41.58L1.02 29.36c-.452-.237-.703-.703-.703-1.22V16.226a.484.484 0 01.244-.46.48.48 0 01.516.022l21.116 12.194z" fill="#FBFAFA"/><path d="M22.494 28.16v12.897l25.85-14.926.028-.014a.908.908 0 00.38-.373c.093-.165.143-.366.143-.574V13.22a.153.153 0 00-.021-.086.173.173 0 00-.072-.072c-.029-.014-.064-.029-.093-.022a.203.203 0 00-.093.03c-.015.006-.022.013-.036.02L22.487 28.155l.007.007zm-.61 13.428v-13.6c0-.107.057-.207.15-.265L48.28 12.575a.773.773 0 01.832-.029c.129.08.236.187.3.316a.796.796 0 01.094.409v11.906c0 .316-.079.617-.23.882a1.577 1.577 0 01-.623.603L22.357 41.846a.286.286 0 01-.172.05.306.306 0 01-.308-.308h.007z" fill="#DDCECD" fill-rule="nonzero"/><path d="M22.494 27.982V41.58a.306.306 0 01-.309.309.314.314 0 01-.179-.058L.869 29.631a1.633 1.633 0 01-.638-.61L.223 29a1.767 1.767 0 01-.222-.86V16.232a.733.733 0 01.093-.409.797.797 0 01.302-.315.773.773 0 01.832.029l21.1 12.185a.298.298 0 01.151.266l.015-.007zm-.61 13.075V28.16L.934 16.068c-.015-.007-.022-.014-.036-.021a.158.158 0 00-.094-.03.199.199 0 00-.093.022.173.173 0 00-.072.072.199.199 0 00-.021.093v11.95c0 .2.05.394.136.56l.007.013a.96.96 0 00.395.38l20.72 11.964.008-.014z" fill="#DDCECD" fill-rule="nonzero"/><path d="M49.118 12.54a.305.305 0 01-.309.523L27.328.662.704 16.032a.3.3 0 01-.416-.114.3.3 0 01.115-.416L27.163.052a.293.293 0 01.323-.007l21.632 12.494z" fill="#DDCECD" fill-rule="nonzero"/><path fill="#E7DCDC" d="M39.37 27.472l2.188-1.262 4.146-2.396v-5.336l-6.334 3.665z"/><path d="M39.672 26.949l5.723-3.307V19.01l-5.723 3.306v4.634zm2.03-.474l-2.16 1.248a.314.314 0 01-.179.058.306.306 0 01-.308-.309v-5.336c0-.108.057-.208.15-.265l6.312-3.644a.314.314 0 01.18-.057c.172 0 .308.136.308.308v5.336a.313.313 0 01-.15.266L41.7 26.475z" fill="#E7DCDC" fill-rule="nonzero"/><path fill="#DDCECD" d="M48.45 45.13v5.158L22.194 65.443v-5.092z"/><path d="M48.752 45.13v5.158c0 .122-.072.23-.18.28L22.344 65.715a.3.3 0 01-.416-.115.301.301 0 01-.043-.15v-5.1c0-.122.072-.223.172-.273l26.237-15.205a.305.305 0 01.459.258zm-.61 4.978v-4.446l-25.648 14.86v4.39l25.648-14.804z" fill="#DDCECD" fill-rule="nonzero"/><path fill="#DDCECD" d="M1.07 48.1v5.15l21.123 12.193v-5.092z"/><path d="M1.378 48.63v4.448l20.506 11.841v-4.39L1.378 48.632zm-.61 4.627V48.1c0-.05.015-.107.044-.15a.305.305 0 01.416-.108l21.1 12.236c.101.05.173.158.173.273v5.1a.305.305 0 01-.459.258L.94 53.528a.313.313 0 01-.172-.272z" fill="#DDCECD" fill-rule="nonzero"/><path d="M22.494 65.622v12.896l25.85-14.925.028-.015a.908.908 0 00.38-.373c.093-.165.143-.366.143-.574V50.682a.153.153 0 00-.021-.086.173.173 0 00-.072-.072c-.029-.014-.064-.028-.093-.021a.192.192 0 00-.093.029c-.015.007-.022.014-.036.021L22.487 65.615l.007.007zm-.61 13.427V65.45c0-.107.057-.208.15-.265L48.28 50.037a.773.773 0 01.832-.029.785.785 0 01.3.316.794.794 0 01.094.408V62.64c0 .315-.079.616-.23.882a1.577 1.577 0 01-.623.602L22.357 79.307a.286.286 0 01-.172.05.306.306 0 01-.308-.308h.007z" fill="#DDCECD" fill-rule="nonzero"/><path d="M22.494 65.443v13.599a.306.306 0 01-.309.308.345.345 0 01-.172-.05L.855 67.086a1.577 1.577 0 01-.624-.603l-.008-.021a1.767 1.767 0 01-.222-.861V53.695a.733.733 0 01.093-.41l.015-.02a.772.772 0 01.294-.295l.021-.014c.13-.065.266-.1.402-.093.143.007.28.05.402.129l21.115 12.193c.1.057.15.158.15.265v-.007zm-.61 13.075V65.622L.92 53.515l-.021-.014a.158.158 0 00-.094-.029.191.191 0 00-.086.022l-.007.007a.14.14 0 00-.064.065l-.008.007a.191.191 0 00-.021.086v11.949c0 .2.05.394.136.56l.007.014a.908.908 0 00.38.373l.03.014 20.713 11.957v-.008zm.61-31.666v12.896l25.85-14.926.028-.014a.908.908 0 00.38-.373c.093-.165.143-.366.143-.574V31.912a.17.17 0 00-.021-.086.173.173 0 00-.072-.072c-.029-.014-.064-.028-.093-.021a.203.203 0 00-.093.028c-.015.008-.022.015-.036.022L22.487 46.845l.007.007zm-.61 13.427V46.68c0-.108.057-.208.15-.265L48.28 31.266a.773.773 0 01.832-.028.798.798 0 01.394.724v11.906c0 .316-.079.617-.23.883a1.577 1.577 0 01-.623.602L22.357 60.537a.286.286 0 01-.172.05.306.306 0 01-.308-.308h.007z" fill="#DDCECD" fill-rule="nonzero"/><path d="M22.494 46.68v13.599a.306.306 0 01-.309.308.345.345 0 01-.172-.05L.855 48.322a1.548 1.548 0 01-.624-.61 1.751 1.751 0 01-.23-.874V34.932a.733.733 0 01.093-.41.797.797 0 01.302-.315l.021-.014c.13-.065.265-.1.402-.093a.8.8 0 01.401.129l21.116 12.186c.1.057.15.157.15.265h.008zm-.61 13.075V46.86L.92 34.752l-.021-.014a.158.158 0 00-.094-.029.191.191 0 00-.086.022l-.007.007a.173.173 0 00-.072.072.199.199 0 00-.021.093v11.949c0 .208.05.409.143.574a1 1 0 00.38.373l.03.014L21.883 59.77v-.015z" fill="#DDCECD" fill-rule="nonzero"/><path d="M21.884 41.58c0-.172.136-.308.309-.308.172 0 .308.136.308.308v5.1a.306.306 0 01-.308.308.306.306 0 01-.309-.308v-5.1zm0 18.77c0-.172.136-.308.309-.308.172 0 .308.136.308.309v5.1a.306.306 0 01-.308.308.306.306 0 01-.309-.309v-5.1z" fill="#DDCECD" fill-rule="nonzero"/><path d="M32.944 25.5a.3.3 0 01.416.115.3.3 0 01-.115.416l-7.732 4.468a.3.3 0 01-.416-.115.3.3 0 01.115-.416l7.732-4.468z" fill="#E7DCDC" fill-rule="nonzero"/><path d="M32.944 30.829a.3.3 0 01.416.115.3.3 0 01-.115.416l-7.732 4.468a.3.3 0 01-.416-.115.3.3 0 01.115-.416l7.732-4.468zm0-2.669a.3.3 0 01.416.116.3.3 0 01-.115.416l-7.732 4.468a.3.3 0 01-.416-.115.3.3 0 01.115-.416l7.732-4.468z" fill="#FFF" fill-rule="nonzero"/><path fill="#E7DCDC" d="M39.37 46.35l1.78-1.026 4.582-2.646-.028-5.358-6.362 3.672z"/><path d="M39.672 45.82l5.76-3.322-.03-4.654-5.759 3.32.029 4.655zm1.628-.237l-1.779 1.025a.265.265 0 01-.15.043.31.31 0 01-.309-.3l-.029-5.359c0-.107.058-.208.151-.265l6.355-3.672a.31.31 0 01.466.258l.029 5.336a.317.317 0 01-.151.287L41.3 45.583z" fill="#E7DCDC" fill-rule="nonzero"/><path d="M32.944 44.335a.3.3 0 01.416.114.3.3 0 01-.115.416l-7.732 4.469a.3.3 0 01-.416-.115.3.3 0 01.115-.416l7.732-4.468zm0 5.335a.3.3 0 01.416.116.3.3 0 01-.115.416l-7.732 4.468a.3.3 0 01-.416-.115.3.3 0 01.115-.416l7.732-4.468z" fill="#FFF" fill-rule="nonzero"/><path d="M32.944 47.003a.3.3 0 01.416.115.3.3 0 01-.115.416l-7.732 4.468a.3.3 0 01-.416-.115.3.3 0 01.115-.416l7.732-4.468z" fill="#E7DCDC" fill-rule="nonzero"/><path fill="#E7DCDC" d="M39.378 65.07l6.326-3.65-.036-5.287-4.153 2.396-2.173 1.255z"/><path d="M39.679 64.546l5.723-3.306-.028-4.583-5.724 3.306.029 4.583zm6.182-2.861l-6.326 3.65a.265.265 0 01-.15.043.31.31 0 01-.309-.3l-.035-5.265a.317.317 0 01.15-.287l6.319-3.651a.31.31 0 01.466.258l.036 5.265a.317.317 0 01-.15.287zm-12.917 1.413a.3.3 0 01.416.114.3.3 0 01-.115.416l-7.732 4.469a.3.3 0 01-.416-.115.3.3 0 01.115-.416l7.732-4.468z" fill="#E7DCDC" fill-rule="nonzero"/><path d="M32.944 68.434a.3.3 0 01.416.115.3.3 0 01-.115.416l-7.732 4.468a.3.3 0 01-.416-.115.3.3 0 01.115-.416l7.732-4.468zm0-2.668a.3.3 0 01.416.115.3.3 0 01-.115.416l-7.732 4.468a.3.3 0 01-.416-.115.3.3 0 01.115-.416l7.732-4.468zm2.525-46.463l-.395-.187-8.786 5.043.394.179z" fill="#FFF" fill-rule="nonzero"/></g></svg>